<?xml version="1.0" standalone="no"?><!DOCTYPE svg PUBLIC "-//W3C//DTD SVG 1.1//EN" "http://www.w3.org/Graphics/SVG/1.1/DTD/svg11.dtd"><svg t="1560395439162" class="icon" style="" viewBox="0 0 1024 1024" version="1.1" xmlns="http://www.w3.org/2000/svg" p-id="26389" xmlns:xlink="http://www.w3.org/1999/xlink" width="200" height="200"><defs><style type="text/css"></style></defs><path d="M707.284327 417.553398c0 108.649098-88.055479 195.994452-195.994452 195.994452S315.295423 525.492372 315.295423 417.553398 402.640777 220.848821 511.289875 220.848821s195.994452 88.055479 195.994452 196.704577zM511.289875 261.325936c-86.635229 0-156.227462 70.302358-156.227462 156.227462s70.302358 156.227462 156.227462 156.227462 156.227462-70.302358 156.227462-156.227462-69.592233-156.227462-156.227462-156.227462z" fill="" p-id="26390"></path><path d="M1022.57975 511.289875c0-281.919556-228.660194-511.289875-511.289875-511.289875C229.370319 0 0 228.660194 0 511.289875c0 176.821082 89.475728 333.048544 226.52982 424.654646-7.101248-22.01387-12.072122-45.447989-13.492372-69.592233-101.54785-85.214979-165.459085-212.327323-165.459085-355.062413C47.578363 254.934813 254.934813 46.868239 511.289875 46.868239c256.355062 0 463.711512 207.356449 463.711512 463.711511 0 165.459085-86.635229 310.324549-217.298197 392.699029-4.970874 23.434119-12.782247 46.158114-22.723994 66.751734 170.429958-82.37448 287.600555-256.355062 287.600554-458.740638z" fill="" p-id="26391"></path><path d="M264.166436 903.988904c6.391123 25.564494 16.332871 48.998613 30.535367 70.302358 66.041609 30.535368 139.184466 48.288488 216.588072 48.288488 52.549237 0 102.9681-7.811373 150.546463-22.723994 17.042996-19.17337 30.535368-41.897365 39.766991-66.041609-58.230236 26.274619-122.851595 41.18724-191.023579 41.18724-90.185853 0-174.690707-26.274619-246.413314-71.012483z" fill="" p-id="26392"></path><path d="M257.775312 849.309293c0-127.112344 102.9681-230.080444 230.080444-230.080444s230.080444 102.9681 230.080444 230.080444c0 29.825243-5.680999 58.940361-16.332871 85.214979 19.17337-8.521498 38.346741-19.17337 56.099861-29.825243 3.550624-17.753121 5.680999-36.216366 5.680999-54.679612 0-151.966713-123.56172-275.528433-275.528433-275.528432s-275.528433 123.56172-275.528433 275.528432c0 5.680999 0 11.361997 0.710125 17.042996 16.332871 13.492372 33.375867 26.274619 51.128988 37.636616-4.260749-18.463245-6.391123-36.926491-6.391124-55.389736z" fill="" p-id="26393"></path><path d="M264.166436 903.988904c-17.753121-11.361997-34.796117-24.144244-51.128988-37.636616 1.42025 24.144244 6.391123 47.578363 13.492372 69.592233 21.303745 14.912621 44.737864 27.694868 68.171983 38.346741-14.202497-21.303745-24.144244-44.737864-30.535367-70.302358zM702.313454 933.814147c-9.941748 24.144244-23.434119 46.158114-39.766991 66.041609 25.564494-7.811373 49.708738-17.753121 73.142857-29.115118 10.651872-20.59362 17.753121-43.317614 22.723995-66.751734-18.463245 11.361997-36.926491 21.303745-56.099861 29.825243z" fill="" p-id="26394"></path></svg>