<?xml version="1.0" standalone="no"?><!DOCTYPE svg PUBLIC "-//W3C//DTD SVG 1.1//EN" "http://www.w3.org/Graphics/SVG/1.1/DTD/svg11.dtd"><svg t="1559456993250" class="icon" style="" viewBox="0 0 1045 1024" version="1.1" xmlns="http://www.w3.org/2000/svg" p-id="12601" xmlns:xlink="http://www.w3.org/1999/xlink" width="204.1015625" height="200"><defs><style type="text/css"></style></defs><path d="M522.039216 70.27451c243.571451 0 441.72549 198.154039 441.72549 441.72549s-198.154039 441.72549-441.72549 441.72549-441.72549-198.154039-441.72549-441.72549S278.467765 70.27451 522.039216 70.27451M522.039216 10.039216c-277.24298 0-501.960784 224.677647-501.960784 501.960784 0 277.222902 224.717804 501.960784 501.960784 501.960784 277.263059 0 501.960784-224.737882 501.960784-501.960784C1024 234.736941 799.302275 10.039216 522.039216 10.039216L522.039216 10.039216z" p-id="12602"></path><path d="M803.619137 491.921569 288.085333 491.921569l163.779765-163.799843c8.352627-8.352627 8.352627-21.925647 0-30.278275s-21.88549-8.352627-30.238118 0l-196.608 196.628078c-6.545569 6.545569-7.790431 16.203294-4.096 24.114196 0.542118 2.590118 1.546039 5.019608 3.413333 6.90698l199.599686 202.772078c6.284549 6.364863 17.749333 5.260549 25.660235-2.549961 7.910902-7.830588 9.216-19.295373 2.931451-25.640157L287.221961 532.078431l516.417255 0c11.966745 0 21.564235-8.975059 21.564235-20.078431C825.203451 500.896627 815.545725 491.921569 803.619137 491.921569z" p-id="12603"></path></svg>