<?xml version="1.0" standalone="no"?><!DOCTYPE svg PUBLIC "-//W3C//DTD SVG 1.1//EN" "http://www.w3.org/Graphics/SVG/1.1/DTD/svg11.dtd"><svg class="icon" width="200px" height="200.00px" viewBox="0 0 1024 1024" version="1.1" xmlns="http://www.w3.org/2000/svg"><path d="M512 20.48c271.450112 0 491.52 220.069888 491.52 491.52S783.450112 1003.52 512 1003.52 20.48 783.450112 20.48 512 240.549888 20.48 512 20.48z" fill="#808080" /><path d="M416.26464873 721.55198462c-22.93300439 0-41.43848076 18.61152495-41.43848076 41.65057791 0 23.01254081 18.53198851 41.65057792 41.43848076 41.65057792s41.43848076-18.6380371 41.43848075-41.65057792a41.51801719 41.51801719 0 0 0-41.43848075-41.65057791z m269.46942961-2.49214153c-22.90649225 0-41.46499291 18.61152495-41.46499291 41.67709006 0 23.01254081 18.55850066 41.65057792 41.46499291 41.65057792 22.90649225 0 41.43848076-18.6380371 41.43848075-41.65057792 0-23.03905297-18.55850066-41.67709006-41.43848075-41.67709006z m25.10700018-138.20780563c29.87918607 0 56.12620844-23.75488085 59.62581141-52.94475118l32.66296116-158.17144993c2.38609294-20.04318071-3.18145726-39.3970457-15.27099482-53.10382403a54.03174907 54.03174907 0 0 0-40.98777432-18.63803709H360.21797673a20.7590086 20.7590086 0 0 0-6.07128093 0.90141289l-1.59072863-25.71677949c-3.68518798-30.30338036-36.37466129-54.05826122-85.1039816-54.05826121h-26.40609523c-11.42673397 0-20.73249645 15.35053126-20.73249645 26.83028952 0 11.50627041 9.27925033 26.83028953 20.73249645 26.83028952h26.40609523c8.98761675 0 18.21384279 8.298301 19.43340141 18.42593995l20.01666856 104.21923728 35.15510268 248.71042101c3.65867585 30.30338036 29.90569821 51.5661197 59.75837214 51.56611971h353.14175545c11.45324612 0 20.73249645-14.52865481 20.73249645-26.03492522 0-11.50627041-9.25273819-26.32655879-20.73249645-26.3265588h-328.48546171c-8.77551959 0-17.47150277-8.13922815-18.6380371-17.81616064l-3.04889654-21.60739718 0.90141289-0.0530243 305.15477517-23.01254081z" fill="#ffffff" /></svg>