<?xml version="1.0" standalone="no"?><!DOCTYPE svg PUBLIC "-//W3C//DTD SVG 1.1//EN" "http://www.w3.org/Graphics/SVG/1.1/DTD/svg11.dtd"><svg t="1560328721747" class="icon" style="" viewBox="0 0 1400 1024" version="1.1" xmlns="http://www.w3.org/2000/svg" p-id="3206" data-spm-anchor-id="a313x.7781069.0.i0" xmlns:xlink="http://www.w3.org/1999/xlink" width="273.4375" height="200"><defs><style type="text/css"></style></defs><path d="M591.792208 864.858874h-66.493507c-3.54632 0-6.649351 3.10303-6.64935 6.649351s3.10303 6.649351 6.64935 6.649351h66.493507c3.54632 0 6.649351-3.10303 6.64935-6.649351s-3.10303-6.649351-6.64935-6.649351zM998.289177 864.858874h-362.611255c-3.54632 0-6.649351 3.10303-6.649351 6.649351s3.10303 6.649351 6.649351 6.649351h362.611255c3.54632 0 6.649351-3.10303 6.649351-6.649351s-2.65974-6.649351-6.649351-6.649351z" fill="#ECEBEB" p-id="3207"></path><path d="M1013.466838 820.365185a17.731602 17.731602 0 1 0 16.39759-31.44452 17.731602 17.731602 0 1 0-16.39759 31.44452Z" fill="#F2F2F2" p-id="3208"></path><path d="M1217.274459 469.444156c-14.185281 0-26.154113 11.525541-26.154113 26.154112s11.525541 26.154113 26.154113 26.154113c14.185281 0 26.154113-11.525541 26.154112-26.154113s-11.525541-26.154113-26.154112-26.154112z m0 38.566234c-7.092641 0-12.855411-5.762771-12.855411-12.855412s5.762771-12.855411 12.855411-12.855411c7.092641 0 12.855411 5.762771 12.855411 12.855411 0 7.535931-5.762771 12.855411-12.855411 12.855412 0 0.44329 0 0.44329 0 0zM1158.316883 868.405195c-14.185281 0-26.154113 11.525541-26.154112 26.154112 0 14.185281 11.525541 26.154113 26.154112 26.154113 14.185281 0 26.154113-11.525541 26.154113-26.154113s-11.525541-26.154113-26.154113-26.154112z m0 39.009524c-7.092641 0-12.855411-5.762771-12.855411-12.855412s5.762771-12.855411 12.855411-12.855411c7.092641 0 12.855411 5.762771 12.855411 12.855411s-5.762771 12.855411-12.855411 12.855412zM846.240693 89.544589c-19.061472 0-34.133333 15.071861-34.133334 34.133333s15.071861 34.133333 34.133334 34.133333c19.061472 0 34.133333-15.071861 34.133333-34.133333 0-18.618182-15.515152-34.133333-34.133333-34.133333z m0 54.967965c-11.525541 0-20.834632-9.309091-20.834632-20.834632s9.309091-20.834632 20.834632-20.834632 20.834632 9.309091 20.834632 20.834632-9.309091 20.834632-20.834632 20.834632zM289.468398 265.087446c-19.061472 0-34.133333 15.515152-33.690043 34.133333 0 19.061472 15.515152 34.133333 34.133333 33.690044 18.618182 0 34.133333-15.515152 33.690044-34.133334 0-18.618182-15.515152-33.690043-34.133334-33.690043z m0 54.967965c-11.525541 0-20.834632-9.752381-20.391342-20.834632 0-11.525541 9.752381-20.834632 20.834632-20.391342 11.525541 0 20.391342 9.309091 20.391342 20.834632 0 11.082251-9.309091 20.391342-20.834632 20.391342z" fill="#F4F4F4" p-id="3209"></path><path d="M226.077922 917.1671c-23.494372 0-42.112554-19.061472-42.112554-42.112555 0-23.494372 19.061472-42.112554 42.112554-42.112554s42.112554 19.061472 42.112554 42.112554c0 23.494372-19.061472 42.112554-42.112554 42.112555z m0-70.926407c-15.958442 0-28.813853 12.855411-28.813853 28.813852s12.855411 28.813853 28.813853 28.813853 28.813853-12.855411 28.813853-28.813853-12.855411-28.813853-28.813853-28.813852z" fill="#EFEFEF" p-id="3210"></path><path d="M465.897835 17.731602m-17.731601 0a17.731602 17.731602 0 1 0 35.463203 0 17.731602 17.731602 0 1 0-35.463203 0Z" fill="#F2F2F2" p-id="3211"></path><path d="M388.426668 342.407866a17.731602 17.731602 0 1 0 16.39759-31.44452 17.731602 17.731602 0 1 0-16.39759 31.44452Z" fill="#F2F2F2" p-id="3212"></path><path d="M589.132468 63.390476l27.483982-21.721212V79.792208zM0.88658 653.409524h26.154113s-8.422511 31.916883-12.855412 26.154112-13.298701-26.154113-13.298701-26.154112zM69.596537 346.209524h13.741991v-19.504762z" fill="#DDDDDD" p-id="3213"></path><path d="M1180.924675 1010.701299h-629.471861c-3.54632 0-6.649351 3.10303-6.649351 6.64935s3.10303 6.649351 6.649351 6.649351h629.471861c3.54632 0 6.649351-3.10303 6.649351-6.649351s-3.10303-6.649351-6.649351-6.64935zM1337.406061 1010.701299h-89.101299c-3.54632 0-6.649351 3.10303-6.649351 6.64935s3.10303 6.649351 6.649351 6.649351h89.101299c3.54632 0 6.649351-3.10303 6.64935-6.649351s-2.65974-6.649351-6.64935-6.64935zM343.549784 1010.701299H244.696104c-3.54632 0-6.649351 3.10303-6.649351 6.64935s3.10303 6.649351 6.649351 6.649351h98.85368c3.54632 0 6.649351-3.10303 6.64935-6.649351s-3.10303-6.649351-6.64935-6.64935zM170.666667 1010.701299H109.049351c-3.54632 0-6.649351 3.10303-6.649351 6.64935s3.10303 6.649351 6.649351 6.649351h61.617316c3.54632 0 6.649351-3.10303 6.64935-6.649351s-3.10303-6.649351-6.64935-6.64935zM1393.260606 150.275325h-15.515151v-13.741992c0-3.54632-3.10303-6.649351-6.649351-6.64935s-6.649351 3.10303-6.649351 6.64935v13.741992h-15.515151c-3.54632 0-6.649351 3.10303-6.649351 6.64935s3.10303 6.649351 6.649351 6.649351h15.515151V177.316017c0 3.54632 3.10303 6.649351 6.649351 6.649351s6.649351-3.10303 6.649351-6.649351v-13.741991h15.515151c3.54632 0 6.649351-3.10303 6.649351-6.649351s-3.10303-6.649351-6.649351-6.64935zM290.354978 154.264935h16.401732v14.628571c0 3.54632 3.10303 6.649351 6.649351 6.649351s6.649351-3.10303 6.64935-6.649351v-14.628571h16.401732c3.54632 0 6.649351-3.10303 6.649351-6.649351s-3.10303-6.649351-6.649351-6.64935h-16.401732v-14.628572c0-3.54632-3.10303-6.649351-6.64935-6.64935s-6.649351 3.10303-6.649351 6.64935v14.628572h-16.401732c-3.54632 0-6.649351 3.10303-6.64935 6.64935s2.65974 6.649351 6.64935 6.649351zM448.609524 797.922078h-15.071862v-13.298701c0-3.54632-3.10303-6.649351-6.64935-6.649351s-6.649351 3.10303-6.649351 6.649351v13.298701h-15.071861c-3.54632 0-6.649351 3.10303-6.649351 6.649351s3.10303 6.649351 6.649351 6.64935h15.071861v13.298702c0 3.54632 3.10303 6.649351 6.649351 6.64935s6.649351-3.10303 6.64935-6.64935v-13.298702h15.071862c3.54632 0 6.649351-3.10303 6.64935-6.64935s-3.10303-6.649351-6.64935-6.649351zM922.48658 958.393074h6.206061v5.31948c0 3.54632 3.10303 6.649351 6.64935 6.649351s6.649351-3.10303 6.649351-6.649351v-5.31948h6.206061c3.54632 0 6.649351-3.10303 6.64935-6.649351s-3.10303-6.649351-6.64935-6.649351h-6.206061V939.774892c0-3.54632-3.10303-6.649351-6.649351-6.649351s-6.649351 3.10303-6.64935 6.649351v5.31948h-6.206061c-3.54632 0-6.649351 3.10303-6.649351 6.649351s2.65974 6.649351 6.649351 6.649351zM1248.304762 738.521212c3.54632 0 6.649351-3.10303 6.649351-6.649351v-5.31948h6.20606c3.54632 0 6.649351-3.10303 6.649351-6.649351s-3.10303-6.649351-6.649351-6.64935h-6.20606v-5.319481c0-3.54632-3.10303-6.649351-6.649351-6.649351s-6.649351 3.10303-6.649351 6.649351v5.319481h-6.20606c-3.54632 0-6.649351 3.10303-6.649351 6.64935s3.10303 6.649351 6.649351 6.649351h6.20606v5.31948c0 3.54632 3.10303 6.649351 6.649351 6.649351zM347.982684 476.536797h-8.422511v-7.535931c0-2.65974-1.77316-4.4329-4.4329-4.432901s-4.4329 1.77316-4.432901 4.432901v7.535931h-8.422511c-2.65974 0-4.4329 1.77316-4.4329 4.4329s1.77316 4.4329 4.4329 4.4329h8.422511v7.535931c0 2.65974 1.77316 4.4329 4.432901 4.432901s4.4329-1.77316 4.4329-4.432901v-7.535931h8.422511c2.65974 0 4.4329-1.77316 4.4329-4.4329s-2.21645-4.4329-4.4329-4.4329z" fill="#BBBBBB" p-id="3214"></path><path d="M592.678788 403.837229l471.660606 4.432901-93.977489 181.305628-341.333334 7.09264z" fill="#F7F7F7" p-id="3215"></path><path d="M649.215557 453.220253a12.411997 12.411997 0 1 0 1.307841-24.789518 12.411997 12.411997 0 1 0-1.307841 24.789518Z" fill="#FFFFFF" p-id="3216"></path><path d="M691.372883 444.27858l0.61174-8.843636 127.35723 8.794874-0.607308 8.843637z" fill="#FFFFFF" p-id="3217"></path><path d="M919.38355 462.794805m-18.618182 0a18.618182 18.618182 0 1 0 37.236364 0 18.618182 18.618182 0 1 0-37.236364 0Z" fill="#ECEBEB" p-id="3218"></path><path d="M886.580087 545.246753m-20.391342 0a20.391342 20.391342 0 1 0 40.782684 0 20.391342 20.391342 0 1 0-40.782684 0Z" fill="#ECEBEB" p-id="3219"></path><path d="M688.872727 545.246753m-24.824242 0a24.824242 24.824242 0 1 0 49.648485 0 24.824242 24.824242 0 1 0-49.648485 0Z" fill="#ECEBEB" p-id="3220"></path><path d="M746.500433 504.020779m-16.401732 0a16.401732 16.401732 0 1 0 32.803464 0 16.401732 16.401732 0 1 0-32.803464 0Z" fill="#ECEBEB" p-id="3221"></path><path d="M812.550649 512m-8.42251 0a8.422511 8.422511 0 1 0 16.845021 0 8.422511 8.422511 0 1 0-16.845021 0Z" fill="#ECEBEB" p-id="3222"></path><path d="M597.674214 331.157778a8.422427 8.422427 0 1 0 0.887463-16.821459 8.422427 8.422427 0 1 0-0.887463 16.821459Z" fill="#BBBBBB" p-id="3223"></path><path d="M1087.833766 261.097835c3.54632 0 6.649351-3.10303 6.649351-6.64935v-30.143723c0-3.54632-3.10303-6.649351-6.649351-6.649351s-6.649351 3.10303-6.64935 6.649351v30.143723c0 3.54632 2.65974 6.649351 6.64935 6.64935zM1130.8329 226.521212c-3.10303-1.77316-7.092641-0.44329-8.8658 2.65974l-16.401732 28.813853c-1.77316 3.10303-0.88658 7.092641 2.65974 8.865801 3.10303 1.77316 7.092641 0.88658 9.309091-2.65974l16.401732-28.813853c1.32987-3.10303 0-7.092641-3.103031-8.865801zM1160.976623 259.767965c-1.77316-3.10303-5.762771-4.4329-8.8658-3.10303l-24.824243 12.412121c-3.54632 1.32987-4.87619 5.319481-3.54632 8.865801 1.32987 3.54632 5.319481 4.87619 8.865801 3.54632 0 0 0.44329 0 0.44329-0.44329l24.824242-12.412121c3.10303-1.77316 4.4329-5.762771 3.10303-8.865801zM585.142857 556.329004c3.54632 0 6.649351-3.10303 6.649351-6.64935v-1.77316c-0.44329-2.65974-66.050216-278.386147-81.122078-338.230304-16.401732-64.720346-66.493506-66.050216-66.936797-66.050216l-59.400865-3.10303c-3.54632 0-6.649351 2.65974-7.092641 6.20606s2.65974 6.649351 6.20606 7.092641l59.844156 3.10303c0.44329 0 40.339394 0.88658 54.081386 55.854546 15.071861 59.844156 80.235498 335.127273 81.122077 337.787013 0.88658 3.54632 3.54632 5.762771 6.649351 5.76277zM663.161905 760.685714c-29.257143-1.77316-54.524675 20.834632-55.854546 50.535065-1.77316 29.257143 20.834632 54.524675 50.535065 55.854546h2.659741c29.257143 0.88658 53.638095-22.607792 54.524675-51.864935s-22.607792-54.081385-51.864935-54.524676z m37.236363 55.411256c-1.32987 22.164502-19.948052 39.009524-42.112554 37.679653-22.164502-1.32987-39.009524-19.948052-37.679653-42.112554 1.32987-21.277922 18.618182-37.679654 39.896104-37.679653h2.21645c22.164502 0.88658 39.009524 19.504762 37.679653 42.112554 0-0.44329 0-0.44329 0 0zM926.47619 766.448485c-29.257143-1.77316-54.524675 20.834632-55.854545 50.535065-1.77316 29.257143 20.834632 54.524675 50.535065 55.854545h2.65974c29.257143 0.88658 53.638095-22.607792 54.524676-51.864935s-22.607792-54.081385-51.864936-54.524675z m37.236364 54.967965c-1.32987 22.164502-19.948052 39.009524-42.112554 37.679654-22.164502-1.32987-39.009524-19.948052-37.679654-42.112554 1.32987-21.277922 18.618182-37.679654 39.896104-37.679654h2.21645c21.721212 1.32987 38.566234 19.948052 37.679654 42.112554z" fill="#BBBBBB" p-id="3224"></path><path d="M1054.143723 305.87013L633.904762 313.849351c-3.54632 0-6.649351 3.10303-6.649351 6.64935s3.10303 6.649351 6.649351 6.649351l421.125541-7.979221h0.88658c7.092641-1.32987 22.607792-1.77316 28.370563 4.432901 2.65974 2.65974 3.10303 7.535931 1.32987 13.298701L1055.030303 403.393939h-341.333333c-2.65974 0-4.4329 1.77316-4.432901 4.432901s1.77316 4.4329 4.432901 4.4329h337.343723l-64.277057 138.749784c-4.87619 10.195671-21.277922 36.793074-39.896104 37.679653l-348.869264-1.77316c-5.319481 0-11.082251 0.88658-16.401731 2.216451-29.257143 3.98961-50.091775 31.030303-46.102165 60.730735 1.32987 10.195671 5.762771 19.504762 11.968831 27.040693 2.65974 3.54632 6.206061 7.092641 10.195671 9.309091 8.865801 6.649351 19.948052 10.195671 31.030303 10.195671h5.762771c6.649351 0.44329 13.298701 0.88658 19.948052 0.88658 57.184416 0.44329 389.651948 1.77316 392.754978 1.77316 3.54632 0 6.649351-3.10303 6.649351-6.64935s-3.10303-6.649351-6.649351-6.649351-335.570563-1.32987-392.754978-1.77316c-6.649351 0-12.855411-0.44329-19.504762-0.88658-13.741991-1.32987-23.937662-3.54632-30.143723-7.979221-1.77316-1.32987-3.54632-2.65974-5.31948-4.876191v-0.44329l-1.32987-1.32987c-3.98961-5.762771-5.762771-14.628571-5.319481-28.370562 0.44329-25.267532 17.288312-35.019913 31.916883-38.122944 4.4329-0.88658 8.865801-1.77316 13.298701-1.77316l349.312555 1.77316c31.030303-1.32987 50.978355-43.442424 51.864935-45.215585l99.296969-214.552381 0.44329-0.88658c3.10303-11.082251 1.77316-19.948052-3.98961-26.597402-11.968831-12.855411-35.906494-9.309091-40.782684-8.865801z" fill="#BBBBBB" p-id="3225"></path></svg>