<?xml version="1.0" standalone="no"?><!DOCTYPE svg PUBLIC "-//W3C//DTD SVG 1.1//EN" "http://www.w3.org/Graphics/SVG/1.1/DTD/svg11.dtd"><svg t="1559217040453" class="icon" style="" viewBox="0 0 1024 1024" version="1.1" xmlns="http://www.w3.org/2000/svg" p-id="6208" xmlns:xlink="http://www.w3.org/1999/xlink" width="200" height="200"><defs><style type="text/css"></style></defs><path d="M974.933333 403.2 531.2 29.866667c-2.133333-2.133333-4.266667-2.133333-4.266667-2.133333 0 0-2.133333-2.133333-2.133333-2.133333-2.133333 0-4.266667-2.133333-6.4-2.133333-2.133333 0-4.266667 0-4.266667 0-2.133333 0-4.266667 0-4.266667 0-2.133333 0-4.266667 0-6.4 2.133333 0 0-2.133333 0-2.133333 2.133333-2.133333 0-4.266667 2.133333-4.266667 2.133333L49.066667 403.2c-12.8 10.666667-14.933333 29.866667-4.266667 42.666667L46.933333 448c10.666667 10.666667 25.6 12.8 38.4 6.4C85.333333 618.666667 85.333333 936.533333 85.333333 938.666667c0 0 0 0 0 0 0 23.466667 19.2 42.666667 42.666667 42.666667 0 0 0 0 0 0 6.4 0 256 0 256 0 0 0 0 0 0 0l0 0c23.466667 0 42.666667-19.2 42.666667-42.666667l0 0c0 0 0 0 0 0 0-4.266667 0-170.666667 0-170.666667l170.666667 0c0 0 0 166.4 0 170.666667 0 0 0 0 0 0l0 0c0 23.466667 19.2 42.666667 42.666667 42.666667l0 0c0 0 0 0 0 0l264.533333 0c23.466667 0 34.133333-19.2 34.133333-42.666667L938.666667 454.4c12.8 6.4 29.866667 4.266667 38.4-6.4l2.133333-2.133333C989.866667 433.066667 987.733333 413.866667 974.933333 403.2zM661.333333 917.333333c0 0 0-166.4 0-170.666667 0 0 0 0 0-2.133333-2.133333-21.333333-19.2-38.4-40.533333-40.533333 0 0 0 0-2.133333 0-4.266667 0-211.2 0-215.466667 0 0 0 0 0 0 0-21.333333 0-40.533333 19.2-40.533333 40.533333 0 0 0 0 0 0 0 4.266667 0 170.666667 0 170.666667L149.333333 915.2 149.333333 401.066667 512 98.133333l362.666667 305.066667L874.666667 917.333333 661.333333 917.333333z" fill="#999999" p-id="6209"></path></svg>