<?xml version="1.0" standalone="no"?><!DOCTYPE svg PUBLIC "-//W3C//DTD SVG 1.1//EN" "http://www.w3.org/Graphics/SVG/1.1/DTD/svg11.dtd"><svg t="1560331243622" class="icon" style="" viewBox="0 0 1024 1024" version="1.1" xmlns="http://www.w3.org/2000/svg" p-id="4769" xmlns:xlink="http://www.w3.org/1999/xlink" width="200" height="200"><defs><style type="text/css"></style></defs><path d="M 382.35 499.911 a 227.556 227.556 0 1 1 250.027 6.087 C 794.112 561.863 910.222 715.378 910.222 896 a 28.444 28.444 0 0 1 -56.889 0 c 0 -196.38 -159.175 -355.556 -355.555 -355.556 S 142.222 699.62 142.222 896 a 28.444 28.444 0 0 1 -56.889 0 c 0 -187.733 125.412 -346.169 297.017 -396.089 Z M 512 483.556 a 170.667 170.667 0 1 0 0 -341.334 a 170.667 170.667 0 0 0 0 341.334 Z" fill="#8a8a8a" p-id="4770"></path></svg>