<?xml version="1.0" standalone="no"?><!DOCTYPE svg PUBLIC "-//W3C//DTD SVG 1.1//EN" "http://www.w3.org/Graphics/SVG/1.1/DTD/svg11.dtd"><svg class="icon" width="200px" height="200.00px" viewBox="0 0 1024 1024" version="1.1" xmlns="http://www.w3.org/2000/svg"><path d="M510.80888888 36.03114667c-262.86990222 0-475.96999111 213.10122667-475.96999111 475.97226666 0 262.86990222 213.10122667 475.96316445 475.96999111 475.96316445 262.86762667 0 475.96999111-213.09326222 475.96999111-475.96316445C986.78001776 249.13237333 773.67651554 36.03114667 510.80888888 36.03114667zM383.61329777 853.19793778c-0.46876445 9.30019555-5.58193778 14.41450667-15.35203556 15.35203555-7.44675555 0-13.49745778-0.69859555-18.14300444-2.09464888-5.12455111-1.86481778-7.44675555-5.58193778-6.97799112-11.16501334 1.85344-5.58193778 5.34186667-8.13283555 10.46641779-7.67544889 7.90528 1.86481778 11.6224 0.69745778 11.16501333-3.48842667l0-110.25294222-13.95598223 0c-5.12455111-0.45738667-7.67544889-3.71825778-7.67544889-9.76896 0.45738667-5.58307555 3.24835555-8.60387555 8.37290668-9.07264l41.17048888 0c2.79096889 0 4.64554667 1.16622222 5.58193777 3.48842667 1.39605333-3.24835555 3.94695111-5.11317333 7.67658668-5.58193778l93.50599111 0c5.11431111 0.46876445 7.67658667 3.72849778 7.67658666 9.77009778-0.46876445 6.05070222-3.25973333 9.31157333-8.37404445 9.76896l-41.86794665 0-2.79096889 13.25738667 27.21450666 0c11.6224-0.45738667 16.97564445 4.42709333 16.04949333 14.65457778l0 71.87342222c-0.46876445 5.12455111-3.72849778 7.91552-9.76896 8.37404444-6.05070222-0.45852445-9.31157333-3.24949333-9.76896-8.37404444l0-64.89543112c0-1.39605333-0.69745778-2.09351111-2.0935111-2.0935111l-49.54453334 0c-0.93752889 0.46876445-1.63612445 1.16622222-2.09351111 2.0935111l0 63.50051556c-0.46876445 5.58193778-3.72849778 8.61297778-9.76896 9.07264-6.05070222-0.45852445-9.31157333-3.48956445-9.76896-9.07264l0-70.47736889c0-9.76896 4.18702222-14.65457778 12.56106666-14.65457777l16.74695111 0 3.48842668-13.25738667-29.30801778 0c-2.79096889 0-5.82200889-1.15598222-9.07150223-3.48842667-1.39605333 3.25973333-3.95832889 4.88448-7.67544888 4.88448l-7.67658667 0L383.61329777 853.19793778zM505.72984887 867.15278222c-3.72849778 5.58307555-8.61411555 6.51036445-14.65344 2.79210667-3.25973333-1.39605333-8.61411555-4.42709333-16.04949332-9.07264-6.97799111-3.72849778-12.33123555-6.28053333-16.04949334-7.67544889-6.97799111-3.24835555-9.76896-7.20668445-8.37290666-11.86247111-1.39605333 2.33358222-4.18702222 5.12455111-8.37404444 8.37290666-0.46876445 0.46876445-0.93752889 0.93752889-1.39605334 1.39605334-10.70648889 8.83143111-23.02748445 15.81056-36.98346666 20.93397333-6.51946667 1.85344-11.16501333 0.22869333-13.95598223-4.88561777-1.86481778-5.58193778 0-9.76896 5.58193778-12.5599289 21.39249778-8.83143111 34.42119111-17.67424 39.07697778-26.51704888 5.11317333-8.37290667 7.67544889-23.95477333 7.67544889-46.75242667 0.45852445-6.51036445 3.48956445-9.99879111 9.07150221-10.46755555 6.04046222 0.46876445 9.30019555 3.95832889 9.76896 10.46755555 0.92615111 23.72494222-1.86481778 41.86794667-8.37404443 54.42787555 4.64554667-5.58193778 10.69624889-5.81063111 18.14300443-0.69745777 5.58307555 3.25973333 13.01845333 7.44789333 22.33002667 12.56106667 4.18702222 2.79096889 7.20668445 4.65578667 9.07150222 5.58193777C507.82222221 856.44629333 508.97820444 861.10208 505.72984887 867.15278222zM592.95416888 865.06040889l-47.44988444 0c-8.84280889-0.46876445-13.49859555-4.42709333-13.95712001-11.86247111l0-39.07697778c-0.46876445-10.22748445 4.18702222-15.11196445 13.95712001-14.65457778l48.84593777 0c8.83256889-0.45738667 13.25852445 4.42709333 13.25852445 14.65457778l0 39.77443555C608.06613333 861.33077333 603.18279111 865.06040889 592.95416888 865.06040889zM659.24565333 859.47733333c-7.44675555 0-13.25738667-0.93752889-17.4444089-2.79096888-4.65578667-2.33358222-6.05070222-6.04046222-4.18702222-11.16501334 1.85344-5.58193778 5.81063111-7.67658667 11.86247112-6.28053333 12.56106667 2.79096889 17.90293333-2.09464889 16.04949333-14.65457778-0.46876445-9.30019555-6.75043555-20.93397333-18.84160001-34.88995555-4.18702222-4.18702222-4.88448-10.46755555-2.09351111-18.8416 5.11317333-15.80942222 8.60273778-27.91196445 10.46641779-36.2860089l-18.84046222 0c-1.39605333 0-2.33358222 0.93752889-2.79096891 2.7909689l0 125.60497777c-0.46876445 6.0416-3.48956445 9.30133333-9.07263999 9.77009778-6.05070222-0.46876445-9.31157333-3.72849778-9.76896-9.77009778l0-73.96693333c-1.39605333 1.86481778-3.25973333 2.79096889-5.58193777 2.79096889l-78.85255111 0c-5.12455111-0.45738667-7.91552-3.71825778-8.37290668-9.76896 0.45738667-6.0416 3.24835555-9.30133333 8.37290668-9.77009778l16.74808888 0c-0.93752889-0.92615111-4.18702222-6.50922667-9.76896-16.74695111-2.33358222-6.0416-0.69745778-10.22748445 4.88448-12.56106667l-8.37404444 0c-5.12455111-0.45738667-7.91552-3.71825778-8.37290667-9.76896 0.45738667-6.04046222 3.24835555-9.30019555 8.37290667-9.76896l25.12099556 0c-0.93752889-1.39605333-1.39605333-2.79096889-1.39605335-4.18816-1.39605333-4.64440889 0.69745778-8.37290667 6.28053335-11.16501333 6.50922667-2.32220445 10.69624889-1.15598222 12.56106666 3.48842666 1.39605333 4.18702222 3.01966222 8.14421333 4.88448 11.8636089l23.02748445 0c5.11317333 0.46876445 7.90414222 3.72849778 8.37290667 9.76896-0.46876445 6.05070222-3.25973333 9.31157333-8.37290667 9.76896l-53.73155556 0c3.24835555 1.86481778 7.20668445 8.37404445 11.8624711 19.53905777 1.39605333 4.65578667 0.92615111 7.91552-1.39605333 9.76896l15.35203556 0c0.45738667-1.39605333 1.15598222-3.24835555 2.09351112-5.58193777 2.79096889-6.97799111 4.64440889-12.55992889 5.58193777-16.7480889 1.85344-4.64440889 5.81063111-6.50922667 11.86247111-5.58193777 5.58193778 2.33358222 7.67658667 6.05070222 6.28167111 11.16501333-0.93752889 2.33358222-1.86481778 5.12455111-2.79210666 8.37290667-1.39605333 3.72849778-2.56227555 6.74929778-3.48842667 9.07150222l12.56106667 0c2.79096889 0 4.64440889 0.69745778 5.58193778 2.09351111l0-47.44988444c0-9.30133333 3.48842667-13.71704889 10.46641777-13.25852445l41.86908444 0c10.69511111 0 14.88213333 5.82200889 12.55992889 17.44554667 0 0.46876445-1.16622222 4.42709333-3.48842666 11.86247111-3.72849778 11.63491555-6.28053333 20.23651555-7.6754489 25.81845333-1.39605333 4.18702222-2.09351111 7.21806222-2.0935111 9.07150222 0.45738667 1.39719111 1.85344 3.48956445 4.18702222 6.28167112 9.76896 14.89351111 15.11082667 28.84949333 16.04835555 41.86794666C686.22008888 848.08476445 677.38865777 859.00856889 659.24565333 859.47733333zM696.14833777 460.02062222c-8.51968 8.47530667-21.40728889 8.69489778-29.18286222 0.91704889-0.61212445-0.61098667-1.22197333-1.04903111-1.74762667-1.74648889L532.14449777 326.38065778l-0.21845333 318.69838222c0 10.39815111-9.78602667 18.82908445-21.84305778 18.82908445-12.05816889 0-21.31968-8.43093333-21.31968-18.82908445 0-0.82944-0.13084445-1.48593778 0-2.31424l-0.21845334-316.38414222L355.51701333 459.19118222c-0.48014222 0.74183111-1.09112889 1.13664-1.74762668 1.74648889-7.77557333 7.82108445-20.66432 7.60149333-29.18286222-0.91704889-8.51968-8.51968-9.13066667-21.75658667-1.31071999-29.57653333L491.60319999 261.72302222c2.40298667-3.71256889 5.98471111-6.72768 10.65984-8.34332444 2.35975111-0.91818667 4.84920889-1.31072 7.42741334-1.26634667 0.26168889 0 0.43576889-0.13198222 0.69859555-0.13198222 0.17408 0 0.34929778 0.08874667 0.52337778 0.08874666 2.62144-0.08874667 5.19964445 0.34929778 7.64586666 1.31072 4.54428445 1.61678222 8.12600889 4.63075555 10.52899556 8.21361778L697.45905776 430.44408889C705.27786666 438.2208 704.66687998 451.50094222 696.14833777 460.02062222zM684.43946666 200.38656L337.60611554 200.38656c-10.70307555 0-19.39797333-8.60615111-19.39797333-19.17952 0-10.57223111 8.69489778-19.17838222 19.39797333-19.17838222l346.83448889 0c10.74631111 0 19.39683555 8.60615111 19.39683555 19.17838222C703.8363022 191.78040889 695.14367998 200.38656 684.43946666 200.38656zM585.27871999 819.00544L553.17973332 819.00544c-1.39605333 0-2.33358222 0.93752889-2.79096888 2.79096889l0 21.63256889c0.45738667 1.86481778 1.39605333 2.79096889 2.79096888 2.79096889l32.09898667 0c1.85344-0.45738667 2.79096889-1.39605333 2.79096889-2.79096889l0-21.63256889C588.06968888 819.94296889 587.13215998 819.00544 585.27871999 819.00544z" fill="#707070" /></svg>