<?xml version="1.0" standalone="no"?><!DOCTYPE svg PUBLIC "-//W3C//DTD SVG 1.1//EN" "http://www.w3.org/Graphics/SVG/1.1/DTD/svg11.dtd"><svg t="1561219349272" class="icon" viewBox="0 0 1025 1024" version="1.1" xmlns="http://www.w3.org/2000/svg" p-id="13822" xmlns:xlink="http://www.w3.org/1999/xlink" width="200.1953125" height="200"><defs><style type="text/css"></style></defs><path d="M512 0C228.430769 0 0 228.430769 0 512S228.430769 1024 512 1024c283.569231 0 512-228.430769 512-512S795.569231 0 512 0zM478.523077 706.953846c0 21.661538-17.723077 39.384615-39.384615 39.384615l-118.153846 0c-21.661538 0-39.384615-17.723077-39.384615-39.384615l0-118.153846c0-21.661538 17.723077-39.384615 39.384615-39.384615l118.153846 0c21.661538 0 39.384615 17.723077 39.384615 39.384615L478.523077 706.953846zM478.523077 460.8c0 21.661538-17.723077 39.384615-39.384615 39.384615l-118.153846 0c-21.661538 0-39.384615-17.723077-39.384615-39.384615l0-118.153846c0-21.661538 17.723077-39.384615 39.384615-39.384615l118.153846 0c21.661538 0 39.384615 17.723077 39.384615 39.384615L478.523077 460.8zM742.4 706.953846c0 21.661538-17.723077 39.384615-39.384615 39.384615l-118.153846 0c-21.661538 0-39.384615-17.723077-39.384615-39.384615l0-118.153846c0-21.661538 17.723077-39.384615 39.384615-39.384615l118.153846 0c21.661538 0 39.384615 17.723077 39.384615 39.384615L742.4 706.953846zM742.4 460.8c0 21.661538-17.723077 39.384615-39.384615 39.384615l-118.153846 0c-21.661538 0-39.384615-17.723077-39.384615-39.384615l0-118.153846c0-21.661538 17.723077-39.384615 39.384615-39.384615l118.153846 0c21.661538 0 39.384615 17.723077 39.384615 39.384615L742.4 460.8z" p-id="13823" fill="#707070"></path></svg>