<?xml version="1.0" standalone="no"?><!DOCTYPE svg PUBLIC "-//W3C//DTD SVG 1.1//EN" "http://www.w3.org/Graphics/SVG/1.1/DTD/svg11.dtd"><svg t="1560405055858" class="icon" style="" viewBox="0 0 1024 1024" version="1.1" xmlns="http://www.w3.org/2000/svg" p-id="1806" xmlns:xlink="http://www.w3.org/1999/xlink" width="200" height="200"><defs><style type="text/css"></style></defs><path d="M916.620387 451.349665 601.892333 123.977639c-23.839965-24.75173-55.764048-38.385239-89.898473-38.385239-34.125215 0-66.050322 13.634532-89.88824 38.405705L107.375519 451.349665c-36.007075 37.414121-37.70167 76.096119-27.26804 99.796914 12.851703 29.111015 40.000016 45.797046 74.461899 45.797046l23.699772 0 0 229.398644c0 73.560366 54.694693 133.425825 121.92284 133.425825l156.414399 0-0.149403-299.92593c-0.049119-2.675946-0.099261-5.727445-0.059352-8.362458l0.030699-2.694365 111.141286 0 0.029676 2.694365c0.039909 2.635013-0.00921 5.668093-0.058328 8.322549l-0.019443 0.793062-0.119727 299.172777 156.393933 0c67.228147 0 121.92284-59.866483 121.92284-133.425825L845.718571 596.942601l23.699772 0c34.521235 0 61.670571-16.705474 74.491575-45.835931C954.322058 527.426341 952.618253 488.783229 916.620387 451.349665z" p-id="1807" fill="#707070"></path></svg>