<?xml version="1.0" standalone="no"?><!DOCTYPE svg PUBLIC "-//W3C//DTD SVG 1.1//EN" "http://www.w3.org/Graphics/SVG/1.1/DTD/svg11.dtd"><svg t="1560405014034" class="icon" style="" viewBox="0 0 1024 1024" version="1.1" xmlns="http://www.w3.org/2000/svg" p-id="1217" xmlns:xlink="http://www.w3.org/1999/xlink" width="200" height="200"><defs><style type="text/css"></style></defs><path d="M697.842639 600.346117 326.156338 600.346117c-98.783841 0-179.607634 80.823793-179.607634 179.606611 0 98.783841 80.82277 179.607634 179.607634 179.607634l371.686301 0c98.783841 0 179.607634-80.82277 179.607634-179.607634C877.450273 681.168887 796.627503 600.346117 697.842639 600.346117zM697.842639 915.15706 326.156338 915.15706c-74.55195 0-135.204331-60.652382-135.204331-135.204331 0-74.550926 60.652382-135.203308 135.204331-135.203308l371.686301 0c74.550926 0 135.204331 60.652382 135.204331 135.203308C833.04697 854.504678 772.394588 915.15706 697.842639 915.15706z" p-id="1218" fill="#8a8a8a"></path><path d="M512 514.320858c118.975718 0 215.423351-96.448656 215.423351-215.422328 0-118.975718-96.448656-215.423351-215.423351-215.423351-118.973672 0-215.422328 96.448656-215.422328 215.423351C296.577672 417.872203 393.025305 514.320858 512 514.320858zM512 127.877459c94.301759 0 171.021072 76.719312 171.021072 171.021072 0 94.299713-76.719312 171.019025-171.021072 171.019025-94.299713 0-171.019025-76.719312-171.019025-171.019025C340.979952 204.596771 417.699264 127.877459 512 127.877459z" p-id="1219" fill="#8a8a8a"></path></svg>