<?xml version="1.0" standalone="no"?><!DOCTYPE svg PUBLIC "-//W3C//DTD SVG 1.1//EN" "http://www.w3.org/Graphics/SVG/1.1/DTD/svg11.dtd"><svg t="1560405035401" class="icon" style="" viewBox="0 0 1024 1024" version="1.1" xmlns="http://www.w3.org/2000/svg" p-id="1487" xmlns:xlink="http://www.w3.org/1999/xlink" width="200" height="200"><defs><style type="text/css"></style></defs><path d="M417.636842 868.428805c-25.163099 0-45.63434 20.497846-45.63434 45.704948 0 25.15389 20.47124 45.63434 45.63434 45.63434s45.63434-20.48045 45.63434-45.63434C463.271182 888.926652 442.799942 868.428805 417.636842 868.428805z" p-id="1488" fill="#8a8a8a"></path><path d="M813.556057 868.428805c-25.128307 0-45.564755 20.497846-45.564755 45.704948 0 25.15389 20.436448 45.63434 45.564755 45.63434 25.197892 0 45.704948-20.48045 45.704948-45.63434C859.261005 888.926652 838.753949 868.428805 813.556057 868.428805z" p-id="1489" fill="#8a8a8a"></path><path d="M35.431977 257.687944l130.426515 0 134.163629 466.922339c2.731204 6.756891 24.891923 56.435337 86.621846 56.435337l382.26524 0c131.914402 0 239.235686-90.291422 239.235686-222.171032 0-131.897006-107.320261-222.205824-239.235686-222.205824L227.597625 336.668763l-26.003234-97.133248c-0.288572-1.207501-5.53097-21.110807-37.406958-21.110807L35.441187 218.424708c-10.799974 0-19.588127 8.78713-19.588127 19.588127C15.85306 248.866021 24.641213 257.687944 35.431977 257.687944zM768.910231 375.879809c110.253056 0 199.946868 72.716138 199.946868 182.995801 0 110.261243-89.693812 182.942589-199.946868 182.942589L397.304771 741.818199c-35.149545 0-56.408731-24.051789-63.926962-44.654013l-0.630357-1.978051-94.638427-319.306326L768.910231 375.879809z" p-id="1490" fill="#8a8a8a"></path></svg>