<?xml version="1.0" standalone="no"?><!DOCTYPE svg PUBLIC "-//W3C//DTD SVG 1.1//EN" "http://www.w3.org/Graphics/SVG/1.1/DTD/svg11.dtd"><svg t="1560405119418" class="icon" style="" viewBox="0 0 1024 1024" version="1.1" xmlns="http://www.w3.org/2000/svg" p-id="3035" xmlns:xlink="http://www.w3.org/1999/xlink" width="200" height="200"><defs><style type="text/css"></style></defs><path d="M417.636842 868.428805c-25.163099 0-45.63434 20.497846-45.63434 45.704948 0 25.15389 20.47124 45.63434 45.63434 45.63434s45.63434-20.48045 45.63434-45.63434C463.271182 888.926652 442.799942 868.428805 417.636842 868.428805z" p-id="3036" fill="#707070"></path><path d="M813.556057 868.428805c-25.128307 0-45.564755 20.497846-45.564755 45.704948 0 25.15389 20.436448 45.63434 45.564755 45.63434 25.197892 0 45.704948-20.48045 45.704948-45.63434C859.261005 888.926652 838.753949 868.428805 813.556057 868.428805z" p-id="3037" fill="#707070"></path><path d="M768.910231 336.668763 227.597625 336.668763l-26.003234-97.133248c-0.288572-1.207501-5.531993-21.110807-37.406958-21.110807L35.441187 218.424708c-10.799974 0-19.588127 8.78713-19.588127 19.588127 0 10.853186 8.78713 19.675108 19.578917 19.675108l130.426515 0 134.163629 466.922339c2.731204 6.756891 24.891923 56.435337 86.621846 56.435337l382.26524 0c131.914402 0 239.235686-90.291422 239.235686-222.171032C1008.145917 426.977581 900.825656 336.668763 768.910231 336.668763z" p-id="3038" fill="#707070"></path></svg>