<?xml version="1.0" standalone="no"?><!DOCTYPE svg PUBLIC "-//W3C//DTD SVG 1.1//EN" "http://www.w3.org/Graphics/SVG/1.1/DTD/svg11.dtd"><svg t="1560788486534" class="icon" style="" viewBox="0 0 1458 1024" version="1.1" xmlns="http://www.w3.org/2000/svg" p-id="3778" xmlns:xlink="http://www.w3.org/1999/xlink" width="284.765625" height="200"><defs><style type="text/css"></style></defs><path d="M1342.08990422 962H106.14256155A22.80922823 22.80922823 0 0 1 83.33333333 939.19077178V694.88439013a22.80922823 22.80922823 0 0 1 22.53551748-22.80922821 159.13020849 159.13020849 0 0 0 111.8694876-47.53443077 159.11717432 159.11717432 0 0 0 46.24408037-112.54724824 159.11717432 159.11717432 0 0 0-46.24408037-112.56028154 159.13020849 159.13020849 0 0 0-111.8694876-47.53443077A22.80922823 22.80922823 0 0 1 83.33333333 329.08954238V84.80922822A22.80922823 22.80922823 0 0 1 106.14256155 62h1235.94734267a22.80922823 22.80922823 0 0 1 22.80922823 22.80922823v244.24121249a22.80922823 22.80922823 0 0 1-22.80922823 22.80922823 160.31628809 160.31628809 0 0 0-160.10774648 160.13381396 160.31628809 160.31628809 0 0 0 160.10774648 160.10774649 22.80922823 22.80922823 0 0 1 22.80922823 22.80922822V939.17773848a22.80922823 22.80922823 0 0 1-22.80922823 22.82226152zM128.9517889 916.38154443h1190.32888799V716.46843623c-102.74579648-11.37854619-182.91697471-98.74440615-182.91697471-204.47495332s80.17117822-193.09640713 182.91697471-204.47495332V107.61845557H128.9517889v200.17378476a204.30551338 204.30551338 0 0 1 121.21475449 59.57770342 204.46191914 204.46191914 0 0 1 59.42129765 144.675675 204.46191914 204.46191914 0 0 1-59.42129765 144.67567412A204.30551338 204.30551338 0 0 1 128.9517889 716.29899629z" p-id="3779" fill="#8a8a8a"></path><path d="M728.78234925 454.61849961a22.80922823 22.80922823 0 0 1-17.3219792-7.96367901L536.42887103 242.42750967a22.80922823 22.80922823 0 0 1 2.47643086-32.16752754 22.80922823 22.80922823 0 0 1 32.16752841 2.47642998l157.70951895 184.02485097 157.93109473-184.27249423a22.80922823 22.80922823 0 0 1 32.16752841-2.47642999 22.80922823 22.80922823 0 0 1 2.47642998 32.16752843L746.10432844 446.66785391a22.80922823 22.80922823 0 0 1-17.32197919 7.9506457z" p-id="3780" fill="#8a8a8a"></path><path d="M910.10919447 455.25715771h-371.98592315a22.80922823 22.80922823 0 0 1-22.80922822-22.80922821 22.80922823 22.80922823 0 0 1 22.80922822-22.80922735h371.99895732a22.80922823 22.80922823 0 0 1 22.80922823 22.80922735 22.80922823 22.80922823 0 0 1-22.82226241 22.80922821zM910.10919447 584.96997852h-371.98592315a22.80922823 22.80922823 0 0 1-22.80922822-22.80922735 22.80922823 22.80922823 0 0 1 22.80922822-22.80922822h371.99895732a22.80922823 22.80922823 0 0 1 22.80922823 22.80922822 22.80922823 22.80922823 0 0 1-22.82226241 22.80922735z" p-id="3781" fill="#8a8a8a"></path><path d="M728.50863851 835.61080977a22.80922823 22.80922823 0 0 1-22.80922823-22.80922823V432.44792949a22.80922823 22.80922823 0 0 1 22.80922823-22.80922734 22.80922823 22.80922823 0 0 1 22.80922821 22.80922735v380.35365204a22.80922823 22.80922823 0 0 1-22.80922821 22.80922823z" p-id="3782" fill="#8a8a8a"></path></svg>