<?xml version="1.0" standalone="no"?><!DOCTYPE svg PUBLIC "-//W3C//DTD SVG 1.1//EN" "http://www.w3.org/Graphics/SVG/1.1/DTD/svg11.dtd"><svg t="1560788572623" class="icon" style="" viewBox="0 0 1024 1024" version="1.1" xmlns="http://www.w3.org/2000/svg" p-id="4331" xmlns:xlink="http://www.w3.org/1999/xlink" width="200" height="200"><defs><style type="text/css"></style></defs><path d="M502.736962 1024L272.995601 787.618975a430.075289 430.075289 0 1 1 463.206317 9.488439z m9.230479-984.734012a390.798085 390.798085 0 0 0-215.508702 716.814581l1.760857 1.121565 205.246383 211.246755 208.554999-202.588274 1.917876-1.121565a390.573772 390.573772 0 0 0 188.837888-334.630114A390.820517 390.820517 0 0 0 511.956225 39.28842z" p-id="4332" fill="#8a8a8a"></path><path d="M511.978657 694.641242a264.62203 264.62203 0 1 1 187.121893-77.511353 262.89482 262.89482 0 0 1-187.121893 77.511353z m0-490.000504c-124.269395 0-225.367258 101.097863-225.367258 225.367258s101.097863 225.367258 225.367258 225.367257S737.345914 554.27739 737.345914 430.007996s-101.142726-225.356042-225.367257-225.356043z" p-id="4333" fill="#8a8a8a"></path></svg>