<?xml version="1.0" standalone="no"?><!DOCTYPE svg PUBLIC "-//W3C//DTD SVG 1.1//EN" "http://www.w3.org/Graphics/SVG/1.1/DTD/svg11.dtd"><svg t="1560788718482" class="icon" style="" viewBox="0 0 1292 1024" version="1.1" xmlns="http://www.w3.org/2000/svg" p-id="5114" xmlns:xlink="http://www.w3.org/1999/xlink" width="252.34375" height="200"><defs><style type="text/css"></style></defs><path d="M712.509944 971.183546H170.618863C76.540835 971.183546 0 891.419364 0 793.380444v-615.577342C0 79.764182 76.486202 0 170.618863 0h837.250743c94.078028 0 170.618863 79.764182 170.618863 177.803102v240.071066a23.901938 23.901938 0 0 1-47.803876 0V177.803102c0-71.678498-55.097382-129.999226-122.814987-129.999226h-837.250743C102.901258 47.803876 47.803876 106.124605 47.803876 177.803102v615.577342c0 71.678498 55.097382 129.999226 122.814987 129.999226h541.891081a23.901938 23.901938 0 0 1 0 47.803876z" p-id="5115" fill="#8a8a8a"></path><path d="M1142.895069 300.167367H39.554293a23.901938 23.901938 0 0 1 0-47.803876h1103.340776a23.901938 23.901938 0 0 1 0 47.803876zM1002.037534 1024c-159.883478 0-289.950996-130.067518-289.950996-289.950996s130.067518-289.950996 289.950996-289.950995 289.950996 130.067518 289.950995 289.950995-130.067518 289.950996-289.950995 289.950996z m0-532.111774c-133.523055 0-242.14712 108.624065-242.14712 242.14712s108.624065 242.14712 242.14712 242.14712 242.14712-108.624065 242.147119-242.14712-108.624065-242.14712-242.147119-242.14712z" p-id="5116" fill="#8a8a8a"></path><path d="M954.60243 855.607432h-0.573646a38.243101 38.243101 0 0 1-23.492191-8.577381q-0.928761-0.764862-1.775572-1.611674l-94.446801-94.460459a23.901938 23.901938 0 0 1 33.804169-33.804169l86.484041 86.484041 169.867659-169.867659a23.901938 23.901938 0 1 1 33.80417 33.804169l-177.816761 177.830419a23.983888 23.983888 0 0 1-1.775573 1.611674 38.09286 38.09286 0 0 1-24.079495 8.591039zM540.975978 473.381297h-395.406346a23.901938 23.901938 0 0 1 0-47.803876h395.406346a23.901938 23.901938 0 0 1 0 47.803876zM426.314967 639.451963H149.530524a23.901938 23.901938 0 0 1 0-47.803876h276.784443a23.901938 23.901938 0 1 1 0 47.803876z" p-id="5117" fill="#8a8a8a"></path></svg>