<?xml version="1.0" standalone="no"?><!DOCTYPE svg PUBLIC "-//W3C//DTD SVG 1.1//EN" "http://www.w3.org/Graphics/SVG/1.1/DTD/svg11.dtd"><svg t="1560789318465" class="icon" style="" viewBox="0 0 1024 1024" version="1.1" xmlns="http://www.w3.org/2000/svg" p-id="6343" xmlns:xlink="http://www.w3.org/1999/xlink" width="200" height="200"><defs><style type="text/css"></style></defs><path d="M834.385814 1024H189.600736C89.769815 1024 8.54118 944.452699 8.54118 846.666281V267.560856c0-97.786418 81.215185-177.333719 181.059556-177.333718h224.034467a23.538684 23.538684 0 0 1 0 47.077367H189.600736c-73.871115 0-133.982188 58.429739-133.982189 130.256351v579.078524c0 71.826612 60.097622 130.256351 133.982189 130.256351h644.798528c73.871115 0 133.982188-58.429739 133.982189-130.256351V267.560856c0-71.826612-60.097622-130.256351-133.982189-130.256351H643.614869a23.538684 23.538684 0 0 1 0-47.077367h190.784395c99.830921 0 181.059556 79.547301 181.059556 177.333718v579.078524c-0.013451 97.799869-81.242086 177.36062-181.073006 177.36062z" p-id="6344" fill="#8a8a8a"></path><path d="M502.26171 567.362984L328.129253 356.954052a23.554825 23.554825 0 0 1 36.316826-30.008459l137.869434 166.586628 142.899987-172.666334a23.554825 23.554825 0 1 1 36.316826 30.00846z" p-id="6345" fill="#8a8a8a"></path><path d="M644.004939 557.449836h-288.51701a23.538684 23.538684 0 0 1 0-47.077368h288.51701a23.538684 23.538684 0 1 1 0 47.077368zM640.65572 681.626481h-288.51701a23.538684 23.538684 0 0 1 0-47.077368h288.51701a23.538684 23.538684 0 1 1 0 47.077368z" p-id="6346" fill="#8a8a8a"></path><path d="M496.410666 880.561986a23.538684 23.538684 0 0 1-23.538684-23.538684V513.829292a23.538684 23.538684 0 0 1 47.077368 0v343.19401a23.538684 23.538684 0 0 1-23.538684 23.538684z" p-id="6347" fill="#8a8a8a"></path><path d="M496.410666 880.561986a23.538684 23.538684 0 0 1-23.538684-23.538684V513.829292a23.538684 23.538684 0 0 1 47.077368 0v343.19401a23.538684 23.538684 0 0 1-23.538684 23.538684zM422.297439 137.344857a23.47143 23.47143 0 0 1-16.638487-6.900197l-90.280941-90.28094a23.538684 23.538684 0 1 1 33.290425-33.290424l90.28094 90.28094a23.538684 23.538684 0 0 1-16.638487 40.177171z" p-id="6348" fill="#8a8a8a"></path><path d="M332.016498 228.177276a23.538684 23.538684 0 0 1-16.638487-40.177171l90.280941-90.28094a23.55886 23.55886 0 0 1 33.290424 33.344227l-90.28094 90.28094a23.47143 23.47143 0 0 1-16.651938 6.832944z" p-id="6349" fill="#8a8a8a"></path></svg>