<?xml version="1.0" standalone="no"?><!DOCTYPE svg PUBLIC "-//W3C//DTD SVG 1.1//EN" "http://www.w3.org/Graphics/SVG/1.1/DTD/svg11.dtd"><svg t="1560788516588" class="icon" style="" viewBox="0 0 1074 1024" version="1.1" xmlns="http://www.w3.org/2000/svg" p-id="3960" xmlns:xlink="http://www.w3.org/1999/xlink" width="209.765625" height="200"><defs><style type="text/css"></style></defs><path d="M854.740639 1023.97346a23.196141 23.196141 0 0 1-10.801864-2.654021l-306.804794-161.298108-306.831334 161.284838a23.222681 23.222681 0 0 1-33.692793-24.483341l58.600777-341.638816-248.150936-241.953797a23.222681 23.222681 0 0 1 12.872001-39.611259l343.018906-49.842509L516.352999 12.950812a23.222681 23.222681 0 0 1 41.654855 0l153.402397 310.825635 342.965825 49.869049a23.222681 23.222681 0 0 1 12.872001 39.611259l-248.150936 241.953798 58.600777 341.638815a23.222681 23.222681 0 0 1-22.890929 27.150632zM537.133981 810.550385a23.209411 23.209411 0 0 1 10.801864 2.65402l276.018154 145.082042-52.761932-307.295787a23.222681 23.222681 0 0 1 6.635052-20.555391l223.256222-217.629698-308.543178-44.83968a23.222681 23.222681 0 0 1-17.489996-12.699489l-138.009077-279.587811-138.009077 279.587811a23.222681 23.222681 0 0 1-17.489996 12.699489L73.11827 412.832112l223.256222 217.629698a23.222681 23.222681 0 0 1 6.635052 20.55539l-52.655771 307.282517 276.018154-145.082042a23.209411 23.209411 0 0 1 10.762054-2.66729z" p-id="3961" fill="#8a8a8a"></path></svg>