<?xml version="1.0" standalone="no"?><!DOCTYPE svg PUBLIC "-//W3C//DTD SVG 1.1//EN" "http://www.w3.org/Graphics/SVG/1.1/DTD/svg11.dtd"><svg t="1560788685773" class="icon" style="" viewBox="0 0 1111 1024" version="1.1" xmlns="http://www.w3.org/2000/svg" p-id="4884" xmlns:xlink="http://www.w3.org/1999/xlink" width="216.9921875" height="200"><defs><style type="text/css"></style></defs><path d="M988.91713 394.576698a20.2216 20.2216 0 0 1-19.840278-16.419939c-37.450403-195.675758-209.472666-337.700721-409.054082-337.700721a416.622738 416.622738 0 0 0-408.002558 332.651099 20.2216 20.2216 0 0 1-39.622781-8.08864 457.019717 457.019717 0 0 1 896.429309 5.534941 20.24471 20.24471 0 0 1-19.90961 24.02326z" p-id="4885" fill="#8a8a8a"></path><path d="M192.313194 716.585458H72.22A72.300887 72.300887 0 0 1 0 644.365458v-208.802465a72.300887 72.300887 0 0 1 72.22-72.22h120.093194a72.300887 72.300887 0 0 1 72.220001 72.22v208.802465a72.300887 72.300887 0 0 1-72.220001 72.22zM72.22 403.786193a31.811466 31.811466 0 0 0-31.7768 31.7768v208.802465a31.811466 31.811466 0 0 0 31.7768 31.7768h120.093194a31.811466 31.811466 0 0 0 31.7768-31.7768v-208.802465a31.811466 31.811466 0 0 0-31.7768-31.7768zM1039.690679 714.251308H919.58593a72.300887 72.300887 0 0 1-72.22-72.220001v-208.802464a72.300887 72.300887 0 0 1 72.22-72.277777h120.104749a72.300887 72.300887 0 0 1 72.22 72.220001v208.802464a72.300887 72.300887 0 0 1-72.22 72.277777zM919.58593 401.394267a31.811466 31.811466 0 0 0-31.7768 31.7768v208.802464a31.811466 31.811466 0 0 0 31.7768 31.776801h120.104749a31.811466 31.811466 0 0 0 31.7768-31.776801V433.228843a31.811466 31.811466 0 0 0-31.7768-31.7768z" p-id="4886" fill="#8a8a8a"></path><path d="M412.381979 954.726576a347.025768 347.025768 0 0 1-94.17488-13.86624c-60.283479-17.425242-109.520186-48.924717-146.358164-93.597121-32.169677-39.045021-53.338803-87.137764-61.24256-139.055277a20.2216 20.2216 0 1 1 39.980992-6.06648c4.726077 31.19904 17.656346 77.188736 52.437498 119.399882 31.557251 38.305488 74.068832 65.379322 126.367667 80.493524a309.263374 309.263374 0 0 0 83.786756 12.236956h0.080886a20.2216 20.2216 0 0 1 0.080887 40.443201z" p-id="4887" fill="#8a8a8a"></path><path d="M492.297743 1024a88.512832 88.512832 0 1 1 88.512832-88.512832 88.605274 88.605274 0 0 1-88.512832 88.512832z m0-136.570909a48.069632 48.069632 0 1 0 48.069632 48.069632 48.115853 48.115853 0 0 0-48.069632-48.081188z" p-id="4888" fill="#8a8a8a"></path></svg>