<?xml version="1.0" standalone="no"?><!DOCTYPE svg PUBLIC "-//W3C//DTD SVG 1.1//EN" "http://www.w3.org/Graphics/SVG/1.1/DTD/svg11.dtd"><svg t="1560788734293" class="icon" style="" viewBox="0 0 1024 1024" version="1.1" xmlns="http://www.w3.org/2000/svg" p-id="5343" xmlns:xlink="http://www.w3.org/1999/xlink" width="200" height="200"><defs><style type="text/css"></style></defs><path d="M776.863664 885.326753a104.797861 104.797861 0 1 1 69.751183-26.637055 104.916307 104.916307 0 0 1-69.751183 26.637055z m0-163.520461a58.73576 58.73576 0 1 0 58.73576 58.73576 58.801563 58.801563 0 0 0-58.73576-58.73576z" p-id="5344" fill="#8a8a8a"></path><path d="M776.863664 1013.47152c-128.4343 0-232.942628-104.495168-232.942628-232.942628s104.495168-232.942628 232.942628-232.942628 232.942628 104.495168 232.942628 232.942628-104.508328 232.942628-232.942628 232.942628z m0-419.823155c-103.034341 0-186.880526 83.833025-186.880526 186.880527s83.833025 186.880526 186.880526 186.880526 186.880526-83.833025 186.880527-186.880526-83.846185-186.854205-186.880527-186.854206z" p-id="5345" fill="#8a8a8a"></path><path d="M475.946535 1024H155.762287A141.726506 141.726506 0 0 1 14.193708 882.431421V141.568579A141.726506 141.726506 0 0 1 155.762287 0h640.355336a141.726506 141.726506 0 0 1 141.568579 141.568579v328.778121a23.031051 23.031051 0 0 1-46.062102 0V141.568579A95.611762 95.611762 0 0 0 796.117623 46.062102H155.762287A95.611762 95.611762 0 0 0 60.255809 141.568579v740.862842a95.611762 95.611762 0 0 0 95.506478 95.506477h320.184248a23.031051 23.031051 0 0 1 0 46.062102z" p-id="5346" fill="#8a8a8a"></path><path d="M767.282747 264.422784H190.545754a23.031051 23.031051 0 0 1 0-46.062101h576.736993a23.031051 23.031051 0 0 1 0 46.062101zM762.110631 455.554185H185.373638a23.031051 23.031051 0 0 1 0-46.062102H762.110631a23.031051 23.031051 0 0 1 0 46.062102zM506.623895 634.196175H187.097676a23.031051 23.031051 0 0 1 0-46.062101h319.526219a23.031051 23.031051 0 0 1 0 46.062101zM412.472959 819.102612h-223.730208a23.031051 23.031051 0 0 1 0-46.062102h223.730208a23.031051 23.031051 0 0 1 0 46.062102z" p-id="5347" fill="#8a8a8a"></path></svg>